{"title":"Ash vs Evil Dead S01E05 The Host 1080p x264 AAC 2.0","uid":12874180,"size":651456313,"categoryP":"video","categoryS":"hd___tv_shows","magnet":"?xt=urn:btih:8b127d1dba31e90890cac39bf179b47572323e93&amp;dn=Ash+vs+Evil+Dead+S01E05+The+Host+1080p+x264+AAC+2.0&amp;tr=udp%3A%2F%2Ftracker.leechers-paradise.org%3A6969&amp;tr=udp%3A%2F%2Fzer0day.ch%3A1337&amp;tr=udp%3A%2F%2Fopen.demonii.com%3A1337&amp;tr=udp%3A%2F%2Ftracker.coppersurfer.tk%3A6969&amp;tr=udp%3A%2F%2Fexodus.desync.com%3A6969","seeders":1,"leechers":0,"uploader":"cheerfulcaca","files":1,"time":1448926647,"description":"SEASON 1, EPISODE 5 &quot;THE HOST&quot; BRIEF SYNOPSIS:\r\n\r\nEligos possesses Kelly tries to trick Pablo and his uncle into believing Ash is Deadite-occupied. Meanwhile, Ruby and Amanda close in on the trio.\r\n\r\n\r\nSERIES INFO:\r\n\r\n9.3/10·IMDb\r\n98%·Rotten Tomatoes\r\n9.4/10·TV.com\r\n\r\nAsh is baaaack! Bruce Campbell reprises his &quot;Evil Dead&quot; film role as heroic, chainsaw-handed monster fighter Ash Williams, now an aging lothario who has successfully avoided responsibility, maturity and heinous villains for the past 30 years. Constantly peering over his shoulder, Ash somehow knew that the Evil Dead would return for him. That day arrives when Ash commits an act of carelessness, unleashing a Deadite plague that threatens to destroy mankind. Co-starring in the half-hour series are Lucy Lawless as mysterious Ruby; Ray Santiago as Ash's loyal sidekick, Pablo Simon Bolivar; Dana DeLorenzo as moody wild child Kelly Maxwell; and Jill Marie Jones as disgraced Michigan State Trooper Amanda Fisher.\r\n\r\n\r\nMEDIA INFO:\r\n\r\nGeneral:\r\n\r\nUnique ID                                : 178072091501999589717223684935556832728 (0x85F76FF4BFF6D0879612A6669DAC9DD8)\r\nComplete name                            : Ash vs Evil Dead S01E05 The Host 1080p x264 AAC 2.0.mkv\r\nFormat                                   : Matroska\r\nFormat version                           : Version 4 / Version 2\r\nFile size                                : 621 MiB\r\nDuration                                 : 26mn 47s\r\nOverall bit rate                         : 3 242 Kbps\r\nEncoded date                             : UTC 2015-11-30 22:32:13\r\nWriting application                      : mkvmerge v8.6.1 ('Flying') 64bit\r\nWriting library                          : libebml v1.3.3 + libmatroska v1.4.4\r\n\r\nVideo:\r\n\r\nID                                       : 1\r\nFormat                                   : AVC\r\nFormat/Info                              : Advanced Video Codec\r\nFormat profile                           :   \r\nFormat settings, CABAC                   : Yes\r\nFormat settings, ReFrames                : 3 frames\r\nCodec ID                                 : V_MPEG4/ISO/AVC\r\nDuration                                 : 26mn 21s\r\nBit rate mode                            : Constant\r\nBit rate                                 : 3 200 Kbps\r\nWidth                                    : 1 920 pixels\r\nHeight                                   : 1 080 pixels\r\nDisplay aspect ratio                     : 16:9\r\nFrame rate mode                          : Constant\r\nFrame rate                               : 23.976 (24000/1001) fps\r\nStandard                                 : NTSC\r\nColor space                              : YUV\r\nChroma subsampling                       : 4:2:0\r\nBit depth                                : 8 bits\r\nScan type                                : Progressive\r\nBits/(Pixel*Frame)                       : 0.064\r\nStream size                              : 600 MiB (97%)\r\nLanguage                                 : English\r\nDefault                                  : Yes\r\nForced                                   : No\r\nColor range                              : Limited\r\n\r\nAudio:\r\n\r\nID                                       : 2\r\nFormat                                   : AAC\r\nFormat/Info                              : Advanced Audio Codec\r\nFormat profile                           : LC\r\nCodec ID                                 : A_AAC\r\nDuration                                 : 26mn 21s\r\nBit rate                                 : 109 Kbps\r\nChannel(s)                               : 2 channels\r\nChannel positions                        : Front: L R\r\nSampling rate                            : 48.0 KHz\r\nFrame rate                               : 46.875 fps (1024 spf)\r\nCompression mode                         : Lossy\r\nStream size                              : 20.6 MiB (3%)\r\nLanguage                                 : English\r\nDefault                                  : Yes\r\nForced                                   : No\r\n\r\nText:\r\n\r\nID                                       : 3\r\nFormat                                   : UTF-8\r\nCodec ID                                 : S_TEXT/UTF8\r\nCodec ID/Info                            : UTF-8 Plain Text\r\nDuration                                 : 26mn 36s\r\nBit rate                                 : 73 bps\r\nCount of elements                        : 528\r\nStream size                              : 14.3 KiB (0%)\r\nDefault                                  : Yes\r\nForced                                   : No","torrent":{"xt":"urn:btih:8b127d1dba31e90890cac39bf179b47572323e93","amp;dn":"Ash+vs+Evil+Dead+S01E05+The+Host+1080p+x264+AAC+2.0","amp;tr":["udp%3A%2F%2Ftracker.leechers-paradise.org%3A6969","udp%3A%2F%2Fzer0day.ch%3A1337","udp%3A%2F%2Fopen.demonii.com%3A1337","udp%3A%2F%2Ftracker.coppersurfer.tk%3A6969","udp%3A%2F%2Fexodus.desync.com%3A6969"],"infoHash":"8b127d1dba31e90890cac39bf179b47572323e93","infoHashBuffer":{"type":"Buffer","data":[139,18,125,29,186,49,233,8,144,202,195,155,241,121,180,117,114,50,62,147]},"announce":[],"urlList":[]}}